<svg t="1660038357420" class="icon" viewBox="0 0 1024 1024" version="1.1" xmlns="http://www.w3.org/2000/svg" p-id="896" width="150" height="150">
    <path d="M512 744c-114.128 0-216.416-61.84-282.144-113.712-70.88-55.952-114.336-111.024-116.16-113.344a8 8 0 0 1 0-9.872c1.808-2.32 45.28-57.392 116.16-113.344C295.584 341.84 397.872 280 512 280s216.416 61.84 282.144 113.712c70.88 55.952 114.336 111.024 116.16 113.344a8 8 0 0 1 0 9.872c-1.808 2.32-45.28 57.392-116.16 113.344C728.416 682.16 626.128 744 512 744zM130.336 512C157.664 544.672 319.728 728 512 728c192.4 0 354.336-183.312 381.664-216C866.336 479.328 704.288 296 512 296 319.6 296 157.664 479.312 130.336 512z" fill="#e6e6e6" p-id="897"></path>
    <path d="M512 744c-127.92 0-232-104.08-232-232S384.08 280 512 280 744 384.08 744 512 639.92 744 512 744z m0-448c-119.104 0-216 96.896-216 216S392.896 728 512 728 728 631.104 728 512 631.104 296 512 296z" fill="#e6e6e6" p-id="898"></path>
    <path d="M512 512m-176 0a176 176 0 1 0 352 0 176 176 0 1 0-352 0Z" fill="#e6e6e6" p-id="899"></path>
    <path d="M512 696c-101.456 0-184-82.544-184-184S410.544 328 512 328 696 410.544 696 512 613.456 696 512 696z m0-352c-92.64 0-168 75.36-168 168S419.36 680 512 680 680 604.64 680 512 604.64 344 512 344z" fill="#e6e6e6" p-id="900"></path>
    <path d="M384 579.392a8 8 0 0 1-5.664-13.648l79.2-79.184a8 8 0 0 1 11.312 0l50.912 50.912 90.512-90.496a8 8 0 0 1 11.312 11.312l-96.176 96.16a8 8 0 0 1-11.312 0L463.2 503.52l-73.536 73.536a8.032 8.032 0 0 1-5.664 2.336z" fill="#e6e6e6" p-id="901"></path>
    <path d="M615.936 524.608a8 8 0 0 1-8-8v-56h-56a8 8 0 0 1 0-16h64a8 8 0 0 1 8 8v64a8 8 0 0 1-8 8zM64 520a8 8 0 0 1-8-8C56 260.56 260.56 56 512 56a8 8 0 0 1 0 16C269.376 72 72 269.392 72 512a8 8 0 0 1-8 8zM560 72h-16a8 8 0 0 1 0-16h16a8 8 0 0 1 0 16zM512 968a8 8 0 0 1 0-16c242.608 0 440-197.392 440-440a8 8 0 0 1 16 0c0 251.44-204.56 456-456 456z" fill="#e6e6e6" p-id="902"></path>
    <path d="M512 904c-192.624 0-355.216-137.744-386.64-327.552a8 8 0 0 1 15.792-2.624C171.28 755.872 327.248 888 512 888c184.768 0 340.736-132.128 370.864-314.192a8 8 0 0 1 15.776 2.624C867.232 766.24 704.624 904 512 904zM890.736 456.88a8 8 0 0 1-7.872-6.688C852.736 268.128 696.768 136 512 136c-184.752 0-340.72 132.128-370.848 314.176a8 8 0 1 1-15.792-2.624C156.784 257.744 319.376 120 512 120s355.232 137.76 386.64 327.568a8 8 0 0 1-7.904 9.312zM848 104h-64a8 8 0 0 1 0-16h64a8 8 0 0 1 0 16z" fill="#e6e6e6" p-id="903"></path>
    <path d="M816 136a8 8 0 0 1-8-8V64a8 8 0 0 1 16 0v64a8 8 0 0 1-8 8zM960 208h-64a8 8 0 0 1 0-16h64a8 8 0 0 1 0 16z" fill="#e6e6e6" p-id="904"></path>
    <path d="M928 240a8 8 0 0 1-8-8v-64a8 8 0 0 1 16 0v64a8 8 0 0 1-8 8z" fill="#e6e6e6" p-id="905"></path>
</svg>