<svg t="1659956620088" class="icon" viewBox="0 0 1024 1024" version="1.1" xmlns="http://www.w3.org/2000/svg" p-id="1414" width="128" height="128">
    <path d="M511.644913 138.506541c-206.265784 0-373.47811 167.211303-373.47811 373.47811S305.379129 885.461737 511.644913 885.461737 885.123023 718.250434 885.123023 511.983627 717.91172 138.506541 511.644913 138.506541zM511.930415 754.176668c-21.052478 0-38.118156-17.065677-38.118156-38.118156 0-21.052478 17.065677-38.118156 38.118156-38.118156s38.118156 17.065677 38.118156 38.118156C550.048571 737.109967 532.98187 754.176668 511.930415 754.176668zM511.771803 627.142413c-37.965683 0-68.658729-262.785032-68.658729-296.484551 0-33.698496 30.776957-61.016679 68.743664-61.016679s68.743664 27.318182 68.743664 61.016679C580.599378 364.357382 549.737486 627.142413 511.771803 627.142413z" p-id="1415"></path>
</svg>