<svg t="1659539989938" class="icon" viewBox="0 0 1024 1024" version="1.1" xmlns="http://www.w3.org/2000/svg" p-id="4377" width="128" height="128">
    <path d="M652.245333 699.733333H371.754667a46.122667 46.122667 0 0 1-47.018667-46.933333V372.778667c0-26.624 20.352-46.933333 47.018667-46.933334h280.490666c26.624 0 47.018667 20.309333 47.018667 46.933334V652.8c0 25.045333-20.352 46.933333-47.018667 46.933333z m-233.472-93.866666h186.453334V419.712h-186.453334V605.866667z" p-id="4378"></path>
    <path d="M865.365333 912.512H158.634667a46.122667 46.122667 0 0 1-47.018667-46.933333V160c0-26.581333 20.352-46.933333 47.018667-46.933333h706.730666c26.624 0 47.018667 20.352 47.018667 46.933333v705.578667c0 25.002667-20.394667 46.933333-47.018667 46.933333z m-659.712-93.866667h612.693334V206.933333H205.653333v611.712z" p-id="4379"></path>
    <path d="M373.333333 981.333333a45.44 45.44 0 0 1-45.482666-45.354666V868.693333a45.44 45.44 0 0 1 90.88 0v67.285334c0 25.002667-20.352 45.354667-45.397334 45.354666zM652.245333 981.333333a45.44 45.44 0 0 1-45.44-45.354666V868.693333a45.44 45.44 0 0 1 90.88 0v67.285334c0 25.002667-20.352 45.354667-45.44 45.354666zM373.333333 199.125333a45.44 45.44 0 0 1-45.482666-45.397333v-65.706667a45.44 45.44 0 0 1 90.88 0V155.306667c0 23.466667-20.352 43.818667-45.397334 43.818666zM652.245333 199.125333a45.44 45.44 0 0 1-45.44-45.397333v-65.706667a45.44 45.44 0 0 1 90.88 0V155.306667c0 23.466667-20.352 43.818667-45.44 43.818666zM935.893333 419.712h-67.413333a45.44 45.44 0 0 1-45.44-45.397333c0-25.002667 20.394667-45.354667 45.482667-45.354667h67.370666c25.088 0 45.44 20.352 45.44 45.354667 0 25.045333-20.352 45.397333-45.44 45.397333zM935.893333 693.461333h-67.413333a45.44 45.44 0 0 1-45.44-45.354666c0-25.045333 20.394667-45.354667 45.482667-45.354667h67.370666c25.088 0 45.44 20.309333 45.44 45.354667s-20.352 45.354667-45.44 45.354666zM153.941333 419.712H88.106667A45.44 45.44 0 0 1 42.666667 374.314667c0-25.002667 20.352-45.354667 45.44-45.354667h67.413333c25.045333 0 45.44 20.352 45.44 45.354667 0 25.045333-21.973333 45.397333-47.018667 45.397333zM153.941333 693.461333H88.106667A45.44 45.44 0 0 1 42.666667 648.106667c0-25.045333 20.352-45.354667 45.44-45.354667h67.413333c25.045333 0 45.44 20.309333 45.44 45.354667s-21.973333 45.354667-47.018667 45.354666z" p-id="4380"></path>
</svg>