<svg t="1659956885888" class="icon" viewBox="0 0 1024 1024" version="1.1" xmlns="http://www.w3.org/2000/svg" p-id="1665" width="300" height="300">
    <path d="M715.320333 513.824719h-167.361516v-280.976077c0-19.565677-16.292404-35.124879-36.108008-35.124878a35.179709 35.179709 0 0 0-35.637483 35.124878v316.586782a35.393932 35.393932 0 0 0 35.637483 35.379906h203.469524c19.838556 0 36.13096-15.811678 36.13096-35.379906 0-19.541449-16.292404-35.610705-36.13096-35.610705z m281.817666-286.995991c-10.142427-14.79157-21.340665-29.615019-33.571764-44.665441-12.701623-14.536543-25.401971-28.59491-37.634345-41.12184-13.498583-12.548607-27.208838-25.098489-41.719879-36.884566-15.000692-12.016876-30.00266-23.334977-45.004627-33.365191-16.033552-10.532618-32.303004-20.560283-48.590308-29.080737-15.77725-8.05758-33.079561-16.321733-50.851123-23.845031a35.756071 35.756071 0 0 0-46.824246 18.56597c-7.887987 17.80599 1.009907 38.389225 18.805697 46.400901a451.52543 451.52543 0 0 1 44.770002 21.325364 442.450292 442.450292 0 0 1 42.751463 25.354791 591.08007 591.08007 0 0 1 39.159407 28.849938v0.230799a486.381256 486.381256 0 0 1 36.366861 32.624338c12.488676 12.52693 23.663962 24.057979 33.312911 36.12076a385.753949 385.753949 0 0 1 29.510457 38.876326 36.857788 36.857788 0 0 0 49.865444 9.794315c16.269452-11.045222 20.847188-33.11144 9.648949-49.17942z m-155.651948-2.246788a470.385958 470.385958 0 0 0-658.785932-0.255027v0.255027C98.253005 307.868681 46.111445 422.759652 46.111445 549.435424c0 126.955027 52.142835 241.823045 136.588674 324.876436a469.786644 469.786644 0 0 0 657.776025 0.765081l1.009907-0.765081c84.445839-83.539218 136.329822-198.176437 136.329821-324.876436 0-125.911966-51.387955-239.831284-134.287054-322.609246l-2.040217-2.246788z m-50.868975 599.809646a396.102947 396.102947 0 0 1-278.766267 113.896365c-108.885083 0-207.558883-43.159506-278.810896-113.896365-71.468787-70.504784-115.464782-167.566813-115.464782-274.956162a384.288818 384.288818 0 0 1 115.459681-274.931935c71.252014-70.504784 169.925813-113.891265 278.810897-113.891265a396.097847 396.097847 0 0 1 278.771367 113.891265l2.040216 1.50466c69.938624 70.226805 113.441142 167.080986 113.441142 273.427275 0 107.38935-44.254848 204.706405-115.482633 274.956162zM86.044859 266.213834c9.648949-13.771462 19.063274-26.836499 29.510457-38.876327 9.648949-11.554001 20.824236-23.590004 33.314187-36.120759 12.208146-12.06278 24.392064-22.852976 36.108008-32.624338a488.005778 488.005778 0 0 1 39.933414-29.080737c13.734483-9.308488 27.985396-17.573916 42.751463-25.585591l1.503385-1.041786c13.99206-7.523299 28.50055-14.008637 42.751463-20.051503 18.310944-8.011675 26.692408-28.341158 18.804421-46.168826-7.112705-18.059742-28.242973-26.071418-46.789817-18.800596-16.269452 7.013244-33.078286 14.79157-48.831309 23.31585l-1.808141 0.533007a530.317319 530.317319 0 0 0-48.573732 29.589516 477.302292 477.302292 0 0 0-44.770002 32.856413 511.656989 511.656989 0 0 0-41.696926 36.884565 501.992738 501.992738 0 0 0-37.649647 41.629344 435.250878 435.250878 0 0 0-33.853569 44.155387 35.439837 35.439837 0 0 0 9.436002 49.179421 36.261024 36.261024 0 0 0 49.865443-9.794315z" p-id="1666"></path>
</svg>